<svg width="2000" height="329" viewBox="0 0 2000 329" fill="none" xmlns="http://www.w3.org/2000/svg">
<path d="M419.758 5.53995L298.586 323.164H325.107L376.09 189.282L490.072 189.282L539.558 323.164H588.484L467.769 5.53995L419.758 5.53995ZM384.527 167.122L433.933 37.3947L481.887 167.122L384.538 167.122H384.527ZM292.184 227.461H293.362C284.663 256.938 268.51 281.083 244.859 299.85C220.624 319.09 189.76 328.704 152.265 328.704C121.778 328.704 95.0285 321.779 72.0173 307.929C48.9946 294.079 31.2418 274.77 18.7474 249.99C6.2415 225.222 0 196.668 0 164.352C0 132.036 6.32152 103.955 18.976 79.1751C31.619 54.4069 49.5319 35.0171 72.7032 21.0057C95.863 7.00573 122.692 0 153.18 0C178.477 0 200.654 4.77821 219.71 14.3115C238.754 23.8564 254.301 36.2405 266.35 51.4754C278.387 66.7103 286.995 83.4109 292.184 101.566H250.906C248.437 88.9855 243.99 77.2939 237.543 66.4794C229.461 52.9412 218.567 42.1729 204.849 34.163C191.132 26.1647 175.425 22.1598 157.752 22.1598C133.061 22.1598 112.553 28.6231 96.2517 41.5496C79.9392 54.4762 67.9706 71.6385 60.3573 93.025C52.7327 114.423 48.926 138.199 48.926 164.352C48.926 205.601 57.911 239.603 75.9039 266.379C93.8854 293.156 121.172 306.544 157.752 306.544C185.187 306.544 207.204 298.396 223.825 282.076C238.16 268.007 247.888 249.794 253.032 227.461L292.184 227.461ZM1353.41 227.461H1393.74C1385.04 256.938 1368.89 281.083 1345.24 299.85C1321 319.09 1290.14 328.704 1252.64 328.704C1222.16 328.704 1195.41 321.779 1172.4 307.929C1149.37 294.079 1131.62 274.77 1119.13 249.99C1106.62 225.222 1100.38 196.668 1100.38 164.352C1100.38 132.036 1106.7 103.955 1119.35 79.1751C1132 54.4069 1149.91 35.0171 1173.08 21.0057C1196.24 7.00573 1223.07 0 1253.56 0C1278.86 0 1301.03 4.77821 1320.09 14.3115C1339.13 23.8564 1354.68 36.2405 1366.73 51.4754C1378.77 66.7103 1387.37 83.4109 1392.56 101.566L1351.28 101.566C1348.82 88.9855 1344.37 77.2939 1337.92 66.4794C1329.84 52.9412 1318.95 42.1729 1305.23 34.163C1291.51 26.1647 1275.8 22.1598 1258.13 22.1598C1233.44 22.1598 1212.93 28.6231 1196.63 41.5496C1180.32 54.4762 1168.35 71.6385 1160.74 93.025C1153.11 114.423 1149.3 138.199 1149.3 164.352C1149.3 205.601 1158.29 239.603 1176.28 266.379C1194.26 293.156 1221.55 306.544 1258.13 306.544C1285.57 306.544 1307.58 298.396 1324.2 282.076C1338.54 268.007 1348.27 249.794 1353.41 227.461ZM925.468 5.53995L804.296 323.164H830.817L881.8 189.282L995.782 189.282L1045.27 323.164H1094.19L973.479 5.53995L925.468 5.53995ZM890.248 167.122L939.654 37.3947L987.608 167.122L890.259 167.122H890.248ZM2000 5.53995L1886.6 201.747L1886.6 323.164H1839.5L1839.5 201.747L1739.58 28.1614L1668.95 28.1614L1668.95 323.164H1621.85L1621.85 28.1614L1526.29 28.1614L1526.29 5.53995L1780.98 5.53995L1869.23 166.199L1962.96 5.53995L2000 5.53995ZM1443.54 5.53995L1491.09 5.53995L1491.09 323.164H1443.54L1443.54 5.53995ZM830.131 95.5642C830.131 66.0178 820.597 43.6271 801.552 28.3923C782.496 13.1574 755.896 5.53995 721.762 5.53995L620.938 5.53995L620.938 323.164H668.035L668.035 189.282H720.847C754.981 189.282 781.73 181.595 801.095 166.199C820.448 150.814 830.131 127.269 830.131 95.5642ZM766.801 148.194C756.284 160.82 740.349 167.122 719.018 167.122H668.035L668.035 28.1614L716.275 28.1614C738.52 28.1614 755.141 34.163 766.115 46.1663C777.089 58.1695 782.576 75.101 782.576 96.9492C782.576 118.797 777.318 135.579 766.801 148.194Z" fill="white"/>
</svg>
